<svg xmlns="http://www.w3.org/2000/svg" version="1.1" xmlns:xlink="http://www.w3.org/1999/xlink" xmlns:svgjs="http://svgjs.dev/svgjs" width="1500" height="1500" viewBox="0 0 1500 1500"><rect width="1500" height="1500" fill="#ffffff"></rect><g transform="matrix(0.6666666666666666,0,0,0.6666666666666666,249.39393939393938,595.3715872875281)"><svg viewBox="0 0 396 123" data-background-color="#a44a0c" preserveAspectRatio="xMidYMid meet" height="465" width="1500" xmlns="http://www.w3.org/2000/svg" xmlns:xlink="http://www.w3.org/1999/xlink"><g id="tight-bounds" transform="matrix(1,0,0,1,0.2400000000000091,-0.14743624634181174)"><svg viewBox="0 0 395.52 123.29487249268362" height="123.29487249268362" width="395.52"><g><svg viewBox="0 0 491.89349686893195 153.3372420520713" height="123.29487249268362" width="395.52"><g transform="matrix(1,0,0,1,0,21.1920500954744)"><svg viewBox="0 0 395.52000000000004 110.9531418611225" height="110.9531418611225" width="395.52000000000004"><g id="textblocktransform"><svg viewBox="0 0 395.52000000000004 110.9531418611225" height="110.9531418611225" width="395.52000000000004" id="textblock"><g><svg viewBox="0 0 395.52000000000004 64.94581280788178" height="64.94581280788178" width="395.52000000000004"><g transform="matrix(1,0,0,1,0,0)"><svg width="395.52000000000004" viewBox="3.6 -37.9 304.46999999999997 50" height="64.94581280788178" data-palette-color="#e5ddc6"><g class="wordmark-text-0" data-fill-palette-color="primary" id="text-0"><path d="M3.6 0L3.6-37.45 7.6-37.9 7.6-15.35 18.75-25.15 24.25-25.15 13.35-15.6 24.65 0 19.6 0 10.4-13.05 7.6-10.6 7.6 0 3.6 0ZM28.7 0L28.7-21.1Q28.7-22.25 28.45-24.7L28.45-24.7 32.15-25.2 32.55-21.55 32.6-21.55Q33.5-22.7 34.35-23.55 35.2-24.4 36.12-25.03 37.05-25.65 37.9-25.65L37.9-25.65Q39.05-25.7 41.1-25.4L41.1-25.4 40.2-21.55Q38.55-21.85 37.9-21.8L37.9-21.8Q37.05-21.8 36.1-21 35.15-20.2 34.45-19.3L34.45-19.3Q33.55-18.2 32.7-16.8L32.7-16.8 32.7 0 28.7 0ZM45.5 0L45.5-25.2 49.5-25.65 49.5 0 45.5 0ZM44.85-32.35L44.85-32.35Q44.85-33.5 45.62-34.27 46.4-35.05 47.55-35.05L47.55-35.05Q48.75-35.05 49.57-34.27 50.4-33.5 50.4-32.35L50.4-32.35Q50.4-31.2 49.57-30.43 48.75-29.65 47.55-29.65L47.55-29.65Q46.4-29.65 45.62-30.43 44.85-31.2 44.85-32.35ZM70.99-24.6L70.29-21.05Q68.19-21.7 66.57-21.93 64.94-22.15 63.59-22.15L63.59-22.15Q61.84-22.15 60.67-21.3 59.49-20.45 59.49-19.1L59.49-19.1Q59.54-17.9 60.54-17.05 61.54-16.2 62.87-15.53 64.19-14.85 65.82-14.05 67.44-13.25 68.87-12.25 70.29-11.25 71.19-9.85 72.09-8.45 72.14-6.5L72.14-6.5Q72.09-4.4 71.22-3.03 70.34-1.65 68.97-0.83 67.59 0 65.99 0.33 64.39 0.65 62.99 0.65L62.99 0.65Q61.19 0.65 59.27 0.45 57.34 0.25 55.14-0.4L55.14-0.4 55.89-4Q58.14-3.4 59.99-3.13 61.84-2.85 63.04-2.85L63.04-2.85Q63.94-2.85 64.82-3.05 65.69-3.25 66.39-3.63 67.09-4 67.52-4.6 67.94-5.2 67.94-5.95L67.94-5.95Q67.89-7.35 66.99-8.33 66.09-9.3 64.67-10.08 63.24-10.85 61.62-11.63 59.99-12.4 58.57-13.43 57.14-14.45 56.19-15.88 55.24-17.3 55.24-19.4L55.24-19.4Q55.24-20.9 56.02-22.08 56.79-23.25 58.02-24.03 59.24-24.8 60.72-25.23 62.19-25.65 63.59-25.65L63.59-25.65Q65.04-25.65 66.84-25.43 68.64-25.2 70.99-24.6L70.99-24.6ZM77.54 0L77.54-37.45 81.54-37.9 81.54-22Q83.04-23 84.52-23.75 85.99-24.5 87.54-25.08 89.09-25.65 90.54-25.65L90.54-25.65Q92.59-25.65 93.97-25.18 95.34-24.7 96.19-23.6 97.04-22.5 97.42-20.7 97.79-18.9 97.79-16.2L97.79-16.2 97.79 0 93.79 0 93.79-15.75Q93.79-17.25 93.74-18.43 93.69-19.6 93.32-20.43 92.94-21.25 92.17-21.7 91.39-22.15 89.99-22.15L89.99-22.15Q88.69-22.15 87.19-21.58 85.69-21 84.34-20.25 82.99-19.5 81.54-18.5L81.54-18.5 81.54 0 77.54 0ZM104.89 0L104.89-20.15Q104.94-21.2 104.64-24.7L104.64-24.7 108.34-25.2 108.89-22Q110.39-23 111.86-23.75 113.34-24.5 114.89-25.08 116.44-25.65 117.89-25.65L117.89-25.65Q119.94-25.65 121.31-25.18 122.69-24.7 123.54-23.6 124.39-22.5 124.76-20.7 125.14-18.9 125.14-16.2L125.14-16.2 125.14 0 121.14 0 121.14-15.75Q121.14-17.25 121.09-18.43 121.04-19.6 120.66-20.43 120.29-21.25 119.51-21.7 118.74-22.15 117.34-22.15L117.34-22.15Q116.04-22.15 114.59-21.58 113.14-21 111.74-20.25 110.34-19.5 108.89-18.5L108.89-18.5 108.89 0 104.89 0ZM146.19-5.85L146.19-11.55Q145.19-11.5 144.28-11.45 143.39-11.4 142.51-11.33 141.64-11.25 140.94-11.15L140.94-11.15Q137.34-10.7 135.84-9.58 134.34-8.45 134.34-6.35L134.34-6.35Q134.34-4.6 135.41-3.73 136.49-2.85 138.24-2.85L138.24-2.85Q140.64-2.85 142.51-3.68 144.39-4.5 146.19-5.85L146.19-5.85ZM146.64 0.4L146.14-2.35Q143.78-1 141.76-0.18 139.74 0.65 137.39 0.65L137.39 0.65Q134.03 0.65 132.06-0.98 130.09-2.6 130.09-6.35L130.09-6.35Q130.09-8.3 131.09-9.75 132.09-11.2 133.71-12.18 135.34-13.15 137.39-13.7 139.44-14.25 141.59-14.4L141.59-14.4Q142.49-14.5 143.94-14.58 145.39-14.65 146.19-14.7L146.19-14.7Q146.19-16.45 146.09-17.82 145.99-19.2 145.49-20.18 144.99-21.15 144.01-21.65 143.03-22.15 141.24-22.15L141.24-22.15Q139.78-22.15 138.44-21.98 137.09-21.8 136.03-21.6L136.03-21.6Q134.78-21.35 133.74-21.05L133.74-21.05 132.94-24.5Q134.19-24.8 135.64-25.05L135.64-25.05Q136.89-25.3 138.53-25.48 140.19-25.65 142.09-25.65L142.09-25.65Q144.64-25.65 146.21-24.9 147.79-24.15 148.66-22.88 149.54-21.6 149.86-19.98 150.19-18.35 150.19-16.55L150.19-16.55 150.19-4.55Q150.19-3.85 150.21-3.08 150.24-2.3 150.31-1.55 150.39-0.8 150.49 0L150.49 0 146.64 0.4ZM157.28 0L157.28-20.6Q157.28-22.3 156.98-24.7L156.98-24.7 160.73-25.2 161.28-22.05Q162.63-23.05 163.93-23.8 165.23-24.55 166.73-25.1 168.23-25.65 169.78-25.65L169.78-25.65Q172.28-25.65 173.73-24.78 175.18-23.9 175.88-21.8L175.88-21.8Q177.93-23.25 180.16-24.45 182.38-25.65 184.78-25.65L184.78-25.65Q186.63-25.65 187.93-25.18 189.23-24.7 190.03-23.6 190.83-22.5 191.18-20.7 191.53-18.9 191.53-16.2L191.53-16.2 191.53 0 187.53 0 187.53-15.75Q187.53-17.25 187.48-18.43 187.43-19.6 187.13-20.43 186.83-21.25 186.16-21.7 185.48-22.15 184.23-22.15L184.23-22.15Q183.08-22.15 182.06-21.83 181.03-21.5 179.93-20.9 178.83-20.3 176.53-18.45L176.53-18.45 176.53 0 172.53 0 172.53-15.75Q172.53-17.25 172.48-18.43 172.43-19.6 172.13-20.43 171.83-21.25 171.16-21.7 170.48-22.15 169.23-22.15L169.23-22.15Q167.93-22.15 166.53-21.6 165.13-21.05 163.88-20.3 162.63-19.55 161.28-18.55L161.28-18.55 161.28 0 157.28 0ZM213.93 0.4L213.63-2.75 213.53-2.75Q213.08-2.4 212.23-1.83 211.38-1.25 210.28-0.7 209.18-0.15 207.86 0.25 206.53 0.65 205.18 0.65L205.18 0.65Q203.33 0.65 202.03 0.18 200.73-0.3 199.93-1.4 199.13-2.5 198.78-4.3 198.43-6.1 198.43-8.8L198.43-8.8 198.43-25.15 202.43-25.15 202.43-9.4Q202.43-7.9 202.48-6.7 202.53-5.5 202.83-4.65 203.13-3.8 203.81-3.33 204.48-2.85 205.73-2.85L205.73-2.85Q207.03-2.85 208.43-3.4 209.83-3.95 210.98-4.65L210.98-4.65Q212.33-5.45 213.63-6.45L213.63-6.45 213.63-25.15 217.63-25.15 217.63-3.25Q217.68-1.45 217.88 0L217.88 0 213.93 0.4ZM224.93 0L224.93-21.1Q224.93-22.25 224.68-24.7L224.68-24.7 228.38-25.2 228.78-21.55 228.83-21.55Q229.73-22.7 230.58-23.55 231.43-24.4 232.35-25.03 233.28-25.65 234.13-25.65L234.13-25.65Q235.28-25.7 237.33-25.4L237.33-25.4 236.43-21.55Q234.78-21.85 234.13-21.8L234.13-21.8Q233.28-21.8 232.33-21 231.38-20.2 230.68-19.3L230.68-19.3Q229.78-18.2 228.93-16.8L228.93-16.8 228.93 0 224.93 0ZM243.58-32.15L247.58-32.65 247.58-25.15 254.83-25.15 254.83-21.9 247.58-21.9 247.58-8.55Q247.58-6.9 247.65-5.8 247.73-4.7 247.98-4.05 248.23-3.4 248.68-3.13 249.13-2.85 249.83-2.85L249.83-2.85Q251.73-2.9 254.23-4.25L254.23-4.25 255.43-1.2Q253.78-0.1 252.35 0.28 250.93 0.65 249.53 0.65L249.53 0.65Q246.23 0.65 244.9-1.23 243.58-3.1 243.58-7.45L243.58-7.45 243.58-21.9 238.98-21.9 238.98-25.15 243.58-25.15 243.58-32.15ZM259.92 0L259.92-37.45 263.92-37.9 263.92-22Q265.42-23 266.9-23.75 268.37-24.5 269.92-25.08 271.47-25.65 272.92-25.65L272.92-25.65Q274.97-25.65 276.35-25.18 277.72-24.7 278.57-23.6 279.42-22.5 279.8-20.7 280.17-18.9 280.17-16.2L280.17-16.2 280.17 0 276.17 0 276.17-15.75Q276.17-17.25 276.12-18.43 276.07-19.6 275.7-20.43 275.32-21.25 274.55-21.7 273.77-22.15 272.37-22.15L272.37-22.15Q271.07-22.15 269.57-21.58 268.07-21 266.72-20.25 265.37-19.5 263.92-18.5L263.92-18.5 263.92 0 259.92 0ZM294.02-0.65L283.97-25.15 288.22-25.15 292.92-13.8Q293.62-12.15 294.2-10.5 294.77-8.85 295.22-7.55L295.22-7.55Q295.77-6 296.17-4.55L296.17-4.55 296.22-4.55Q296.67-6 297.22-7.55L297.22-7.55Q297.67-8.85 298.27-10.5 298.87-12.15 299.52-13.8L299.52-13.8 303.87-25.15 308.07-25.15 296.17 4.85Q295.47 6.7 294.35 8.05 293.22 9.4 292.17 10.3L292.17 10.3Q290.92 11.35 289.57 12.1L289.57 12.1 287.62 8.65Q288.67 8.15 289.57 7.4L289.57 7.4Q290.37 6.75 291.17 5.78 291.97 4.8 292.47 3.45L292.47 3.45 294.02-0.65Z" fill="#000000" data-fill-palette-color="primary"></path></g></svg></g></svg></g><g transform="matrix(1,0,0,1,163.31020800000002,80.27796051231527)"><svg viewBox="0 0 232.20979200000002 30.67518134880722" height="30.67518134880722" width="232.20979200000002"><g transform="matrix(1,0,0,1,0,0)"><svg width="232.20979200000002" viewBox="1 -35.01 340.75 45.019999999999996" height="30.67518134880722" data-palette-color="#e5ddc6"><path d="M14.84 0L12.11 0Q10.74 0 9.53-0.51 8.33-1.03 7.43-1.93 6.54-2.83 6.02-4.03 5.49-5.22 5.49-6.59L5.49-6.59 5.49-22.14 1-22.14 1-25 5.49-25 5.49-31.01 8.5-31.49 8.5-25 14.84-25 14.84-22.14 8.5-22.14 8.5-6.45Q8.5-5.69 8.78-5.04 9.06-4.39 9.55-3.91 10.03-3.42 10.69-3.14 11.35-2.86 12.11-2.86L12.11-2.86 14.84-2.86 14.84 0ZM37.06 0L34.06 0 34.06-18.31Q34.06-19.21 33.71-20.01 33.37-20.8 32.79-21.39 32.2-21.97 31.41-22.31 30.61-22.66 29.71-22.66L29.71-22.66 27.71-22.66Q26.8-22.66 26.01-22.31 25.22-21.97 24.63-21.39 24.05-20.8 23.7-20.01 23.36-19.21 23.36-18.31L23.36-18.31 23.36 0 20.36 0 20.36-35.01 23.36-35.01 23.36-22.9Q24.39-24.12 25.83-24.8 27.27-25.49 28.95-25.49L28.95-25.49 29.71-25.49Q31.22-25.49 32.57-24.91 33.91-24.34 34.91-23.34 35.91-22.34 36.48-21 37.06-19.65 37.06-18.14L37.06-18.14 37.06 0ZM47.31-31.01L43.82-31.01 43.82-35.01 47.31-35.01 47.31-31.01ZM47.07 0L44.06 0 44.06-25 47.07-25 47.07 0ZM71.26-6.35L71.26-6.35Q71.26-4.83 70.65-3.58 70.04-2.32 68.99-1.42 67.94-0.51 66.56-0.01 65.18 0.49 63.66 0.49L63.66 0.49 61.66 0.49Q60.15 0.49 58.77-0.09 57.39-0.66 56.35-1.66 55.31-2.66 54.69-4 54.07-5.35 54.07-6.86L54.07-6.86 54.07-7.86 57.07-8.35 57.07-6.69Q57.07-5.79 57.45-4.99 57.83-4.2 58.46-3.61 59.1-3.03 59.93-2.69 60.76-2.34 61.66-2.34L61.66-2.34 63.66-2.34Q64.57-2.34 65.4-2.61 66.23-2.88 66.87-3.38 67.52-3.88 67.9-4.59 68.28-5.3 68.28-6.2L68.28-6.2Q68.28-7.54 67.69-8.4 67.11-9.25 66.14-9.83 65.18-10.4 63.95-10.78 62.71-11.16 61.42-11.54 60.12-11.91 58.89-12.4 57.66-12.89 56.69-13.68 55.73-14.48 55.14-15.67 54.56-16.87 54.56-18.65L54.56-18.65Q54.56-20.17 55.14-21.42 55.73-22.68 56.73-23.58 57.73-24.49 59.06-24.99 60.39-25.49 61.91-25.49L61.91-25.49 63.66-25.49Q65.18-25.49 66.52-24.91 67.86-24.34 68.86-23.34 69.87-22.34 70.44-21 71.01-19.65 71.01-18.14L71.01-18.14 71.01-18.04 68.01-17.55 68.01-18.31Q68.01-19.21 67.67-20.01 67.33-20.8 66.74-21.39 66.15-21.97 65.36-22.31 64.57-22.66 63.66-22.66L63.66-22.66 61.91-22.66Q61-22.66 60.21-22.39 59.42-22.12 58.83-21.62 58.24-21.12 57.9-20.41 57.56-19.7 57.56-18.8L57.56-18.8Q57.56-17.5 58.15-16.69 58.73-15.87 59.7-15.31 60.66-14.75 61.89-14.37 63.13-13.99 64.41-13.59 65.69-13.18 66.92-12.67 68.16-12.16 69.12-11.35 70.09-10.55 70.67-9.34 71.26-8.13 71.26-6.35ZM92.76-31.01L89.27-31.01 89.27-35.01 92.76-35.01 92.76-31.01ZM92.52 0L89.51 0 89.51-25 92.52-25 92.52 0ZM116.71-6.35L116.71-6.35Q116.71-4.83 116.1-3.58 115.49-2.32 114.44-1.42 113.39-0.51 112.01-0.01 110.63 0.49 109.12 0.49L109.12 0.49 107.11 0.49Q105.6 0.49 104.22-0.09 102.84-0.66 101.8-1.66 100.77-2.66 100.14-4 99.52-5.35 99.52-6.86L99.52-6.86 99.52-7.86 102.52-8.35 102.52-6.69Q102.52-5.79 102.9-4.99 103.28-4.2 103.92-3.61 104.55-3.03 105.38-2.69 106.21-2.34 107.11-2.34L107.11-2.34 109.12-2.34Q110.02-2.34 110.85-2.61 111.68-2.88 112.33-3.38 112.97-3.88 113.35-4.59 113.73-5.3 113.73-6.2L113.73-6.2Q113.73-7.54 113.14-8.4 112.56-9.25 111.59-9.83 110.63-10.4 109.4-10.78 108.16-11.16 106.87-11.54 105.58-11.91 104.34-12.4 103.11-12.89 102.15-13.68 101.18-14.48 100.6-15.67 100.01-16.87 100.01-18.65L100.01-18.65Q100.01-20.17 100.6-21.42 101.18-22.68 102.18-23.58 103.18-24.49 104.51-24.99 105.84-25.49 107.36-25.49L107.36-25.49 109.12-25.49Q110.63-25.49 111.97-24.91 113.32-24.34 114.32-23.34 115.32-22.34 115.89-21 116.46-19.65 116.46-18.14L116.46-18.14 116.46-18.04 113.46-17.55 113.46-18.31Q113.46-19.21 113.12-20.01 112.78-20.8 112.19-21.39 111.61-21.97 110.81-22.31 110.02-22.66 109.12-22.66L109.12-22.66 107.36-22.66Q106.45-22.66 105.66-22.39 104.87-22.12 104.28-21.62 103.7-21.12 103.35-20.41 103.01-19.7 103.01-18.8L103.01-18.8Q103.01-17.5 103.6-16.69 104.18-15.87 105.15-15.31 106.11-14.75 107.35-14.37 108.58-13.99 109.86-13.59 111.14-13.18 112.38-12.67 113.61-12.16 114.57-11.35 115.54-10.55 116.12-9.34 116.71-8.13 116.71-6.35ZM163.36 0L160.36 0 160.36-18.31Q160.36-19.21 160.01-20.01 159.67-20.8 159.09-21.39 158.5-21.97 157.71-22.31 156.91-22.66 156.01-22.66L156.01-22.66 154.52-22.66Q153.62-22.66 152.82-22.31 152.03-21.97 151.43-21.39 150.83-20.8 150.49-20.01 150.15-19.21 150.15-18.31L150.15-18.31 150.15 0 147.17 0 147.17-18.31Q147.17-19.21 146.83-20.01 146.49-20.8 145.89-21.39 145.29-21.97 144.5-22.31 143.71-22.66 142.8-22.66L142.8-22.66 141.31-22.66Q140.41-22.66 139.62-22.31 138.82-21.97 138.24-21.39 137.65-20.8 137.31-20.01 136.97-19.21 136.97-18.31L136.97-18.31 136.97 0 133.96 0 133.96-25 134.97-25 136.6-22.46Q137.63-23.85 139.18-24.67 140.73-25.49 142.56-25.49L142.56-25.49 142.8-25.49Q144.93-25.49 146.64-24.44 148.34-23.39 149.27-21.66L149.27-21.66Q149.74-22.51 150.42-23.22 151.1-23.93 151.93-24.43 152.76-24.93 153.74-25.21 154.72-25.49 155.77-25.49L155.77-25.49 156.01-25.49Q157.52-25.49 158.87-24.91 160.21-24.34 161.21-23.34 162.21-22.34 162.79-21 163.36-19.65 163.36-18.14L163.36-18.14 163.36 0ZM186.06-25L173.42 10.01 170.51 10.01 174.95-2.15 166.85-25 169.85-25 176.37-6.05 176.47-4.76 176.56-6.05 183.06-25 186.06-25ZM217.26-6.86L217.26-6.86Q217.26-5.35 216.68-4 216.11-2.66 215.11-1.66 214.11-0.66 212.77-0.09 211.42 0.49 209.91 0.49L209.91 0.49 209.15 0.49Q207.47 0.49 206.03-0.2 204.59-0.88 203.56-2.1L203.56-2.1 203.56 10.01 200.56 10.01 200.56-25 201.56-25 203.2-22.46Q204.22-23.85 205.77-24.67 207.32-25.49 209.15-25.49L209.15-25.49 209.91-25.49Q211.42-25.49 212.77-24.91 214.11-24.34 215.11-23.34 216.11-22.34 216.68-21 217.26-19.65 217.26-18.14L217.26-18.14 217.26-6.86ZM214.25-6.69L214.25-18.31Q214.25-19.21 213.91-20.01 213.57-20.8 212.99-21.39 212.4-21.97 211.61-22.31 210.81-22.66 209.91-22.66L209.91-22.66 207.91-22.66Q207-22.66 206.21-22.31 205.42-21.97 204.83-21.39 204.24-20.8 203.9-20.01 203.56-19.21 203.56-18.31L203.56-18.31 203.56-6.69Q203.56-5.79 203.9-4.99 204.24-4.2 204.83-3.61 205.42-3.03 206.21-2.69 207-2.34 207.91-2.34L207.91-2.34 209.91-2.34Q210.81-2.34 211.61-2.69 212.4-3.03 212.99-3.61 213.57-4.2 213.91-4.99 214.25-5.79 214.25-6.69L214.25-6.69ZM239.96-6.86L239.96-6.86Q239.96-5.35 239.39-4 238.81-2.66 237.81-1.66 236.81-0.66 235.47-0.09 234.13 0.49 232.61 0.49L232.61 0.49 230.61 0.49Q229.1 0.49 227.75-0.09 226.41-0.66 225.41-1.66 224.41-2.66 223.83-4 223.26-5.35 223.26-6.86L223.26-6.86 223.26-18.14Q223.26-19.65 223.83-21 224.41-22.34 225.41-23.34 226.41-24.34 227.75-24.91 229.1-25.49 230.61-25.49L230.61-25.49 232.61-25.49Q234.13-25.49 235.47-24.91 236.81-24.34 237.81-23.34 238.81-22.34 239.39-21 239.96-19.65 239.96-18.14L239.96-18.14 239.96-6.86ZM236.96-6.69L236.96-18.31Q236.96-19.21 236.62-20.01 236.27-20.8 235.69-21.39 235.1-21.97 234.31-22.31 233.51-22.66 232.61-22.66L232.61-22.66 230.61-22.66Q229.71-22.66 228.91-22.31 228.12-21.97 227.53-21.39 226.95-20.8 226.61-20.01 226.26-19.21 226.26-18.31L226.26-18.31 226.26-6.69Q226.26-5.79 226.61-4.99 226.95-4.2 227.53-3.61 228.12-3.03 228.91-2.69 229.71-2.34 230.61-2.34L230.61-2.34 232.61-2.34Q233.51-2.34 234.31-2.69 235.1-3.03 235.69-3.61 236.27-4.2 236.62-4.99 236.96-5.79 236.96-6.69L236.96-6.69ZM256.32-22.14L253.31-22.14Q252.41-22.14 251.62-21.8 250.82-21.46 250.24-20.87 249.65-20.29 249.31-19.49 248.97-18.7 248.97-17.8L248.97-17.8 248.97 0 245.96 0 245.96-25 246.96-25 248.6-22.46Q249.63-23.85 251.18-24.67 252.73-25.49 254.56-25.49L254.56-25.49 256.32-25.49 256.32-22.14ZM272.16 0L269.42 0Q268.06 0 266.85-0.51 265.64-1.03 264.75-1.93 263.86-2.83 263.33-4.03 262.81-5.22 262.81-6.59L262.81-6.59 262.81-22.14 258.31-22.14 258.31-25 262.81-25 262.81-31.01 265.81-31.49 265.81-25 272.16-25 272.16-22.14 265.81-22.14 265.81-6.45Q265.81-5.69 266.09-5.04 266.37-4.39 266.86-3.91 267.35-3.42 268.01-3.14 268.67-2.86 269.42-2.86L269.42-2.86 272.16-2.86 272.16 0ZM289.03-32.15L286.27-32.15Q285.51-32.15 284.86-31.87 284.22-31.59 283.73-31.1 283.24-30.62 282.96-29.96 282.68-29.3 282.68-28.54L282.68-28.54 282.68-25 288.51-25 288.51-22.14 282.68-22.14 282.68 0 279.67 0 279.67-22.14 275.16-22.14 275.16-25 279.67-25 279.67-28.39Q279.67-29.76 280.19-30.97 280.7-32.18 281.6-33.08 282.51-33.98 283.7-34.5 284.9-35.01 286.27-35.01L286.27-35.01 289.03-35.01 289.03-32.15ZM296.27-31.01L292.78-31.01 292.78-35.01 296.27-35.01 296.27-31.01ZM296.03 0L293.03 0 293.03-25 296.03-25 296.03 0ZM307.04 0L304.03 0 304.03-35.01 307.04-35.01 307.04 0ZM318.29-31.01L314.8-31.01 314.8-35.01 318.29-35.01 318.29-31.01ZM318.05 0L315.04 0 315.04-25 318.05-25 318.05 0ZM341.75-6.86L341.75-6.86Q341.75-5.35 341.18-4 340.6-2.66 339.6-1.66 338.6-0.66 337.26-0.09 335.91 0.49 334.4 0.49L334.4 0.49 332.4 0.49Q330.89 0.49 329.54-0.09 328.2-0.66 327.2-1.66 326.2-2.66 325.62-4 325.05-5.35 325.05-6.86L325.05-6.86 325.05-18.14Q325.05-19.65 325.62-21 326.2-22.34 327.2-23.34 328.2-24.34 329.54-24.91 330.89-25.49 332.4-25.49L332.4-25.49 334.4-25.49Q335.91-25.49 337.26-24.91 338.6-24.34 339.6-23.34 340.6-22.34 341.18-21 341.75-19.65 341.75-18.14L341.75-18.14 341.75-6.86ZM338.75-6.69L338.75-18.31Q338.75-19.21 338.4-20.01 338.06-20.8 337.48-21.39 336.89-21.97 336.1-22.31 335.3-22.66 334.4-22.66L334.4-22.66 332.4-22.66Q331.5-22.66 330.7-22.31 329.91-21.97 329.32-21.39 328.74-20.8 328.39-20.01 328.05-19.21 328.05-18.31L328.05-18.31 328.05-6.69Q328.05-5.79 328.39-4.99 328.74-4.2 329.32-3.61 329.91-3.03 330.7-2.69 331.5-2.34 332.4-2.34L332.4-2.34 334.4-2.34Q335.3-2.34 336.1-2.69 336.89-3.03 337.48-3.61 338.06-4.2 338.4-4.99 338.75-5.79 338.75-6.69L338.75-6.69Z" opacity="1" transform="matrix(1,0,0,1,0,0)" fill="#000000" class="slogan-text-1" data-fill-palette-color="secondary" id="text-1"></path></svg></g></svg></g></svg></g></svg></g><g transform="matrix(1,0,0,1,410.85214770443355,0)"><svg viewBox="0 0 81.0413491644984 153.3372420520713" height="153.3372420520713" width="81.0413491644984"><g><svg xmlns="http://www.w3.org/2000/svg" xmlns:xlink="http://www.w3.org/1999/xlink" version="1.1" x="0" y="0" viewBox="122.04599999999994 2.54500000000005 267.90900000000005 506.9069999999999" enable-background="new 0 0 512 512" xml:space="preserve" height="153.3372420520713" width="81.0413491644984" class="icon-icon-0" data-fill-palette-color="accent" id="icon-0"><path d="M359.021 416.956c-2.831-1.727-6.522-0.831-8.246 2-13.088 21.468-47.546 35.687-88.775 36.98v-22.64c27.914-1.141 60.397-10.185 74.163-32.766 1.725-2.829 0.829-6.521-2-8.246-2.831-1.727-6.522-0.83-8.246 2-9.414 15.442-34.126 25.766-63.917 27.014v-18.124c16.289-1.112 34.549-6.799 42.644-20.073 1.725-2.829 0.83-6.521-1.999-8.247-2.831-1.727-6.522-0.83-8.247 1.999-4.765 7.814-17.145 13.178-32.397 14.308v-41.603c71.142-3.455 127.954-54.637 127.954-116.667 0-50.757-17.714-75.078-76.405-155.666-14.91-20.472-31.809-43.675-51.988-72.149-1.125-1.587-2.95-2.531-4.896-2.531s-3.77 0.943-4.895 2.531c-21.824 30.793-40.588 56.401-55.666 76.977-56.889 77.637-74.059 101.068-74.059 150.837 0 31.225 13.96 60.57 39.31 82.632 23.835 20.744 55.142 32.74 88.645 34.089v41.549c-15.253-1.13-27.633-6.492-32.397-14.307-1.725-2.83-5.415-3.727-8.247-2-2.829 1.725-3.725 5.417-2 8.246 8.094 13.275 26.354 18.962 42.644 20.074v18.124c-29.79-1.248-54.501-11.572-63.917-27.015-1.726-2.829-5.418-3.726-8.246-1.999-2.83 1.726-3.725 5.418-1.999 8.247 13.769 22.58 46.25 31.624 74.163 32.765v22.64c-41.229-1.294-75.687-15.514-88.776-36.981-1.726-2.829-5.418-3.726-8.246-1.999-2.829 1.726-3.725 5.417-1.999 8.247 18.237 29.91 61.977 41.581 99.021 42.736v35.514c0 3.313 2.686 6 6 6 3.313 0 6-2.687 6-6v-35.514c37.046-1.154 80.786-12.825 99.021-42.737C362.746 422.373 361.852 418.681 359.021 416.956zM250 337.602c-64.417-2.845-115.954-48.88-115.954-104.71 0-45.842 16.631-68.54 71.738-143.744 13.964-19.057 31.083-42.421 50.88-70.237 18.084 25.425 33.473 46.555 47.184 65.381 58.407 80.197 74.105 101.751 74.105 148.601 0 55.463-51.425 101.264-115.954 104.651v-38c39.477-3.074 70.666-36.157 70.666-76.41 0-42.274-34.393-76.667-76.666-76.667-42.274 0-76.666 34.393-76.666 76.667 0 40.253 31.188 73.336 70.666 76.41V337.602zM191.334 223.133c0-35.657 29.009-64.667 64.666-64.667 35.657 0 64.666 29.009 64.666 64.667 0 33.633-25.813 61.34-58.666 64.379V241.51c2.894-0.934 5.549-2.535 7.76-4.747 3.678-3.676 5.703-8.563 5.703-13.762 0.001-5.199-2.025-10.087-5.701-13.76-3.674-3.678-8.562-5.704-13.762-5.704-5.198 0-10.086 2.025-13.762 5.701-3.677 3.676-5.701 8.563-5.701 13.762 0 5.198 2.024 10.086 5.702 13.764 2.212 2.211 4.868 3.811 7.761 4.746v46.002C217.147 284.473 191.334 256.766 191.334 223.133zM248.537 223c0-1.993 0.776-3.867 2.187-5.277 1.409-1.41 3.283-2.187 5.276-2.187s3.865 0.776 5.276 2.188c1.41 1.409 2.187 3.283 2.187 5.275 0 1.993-0.776 3.867-2.188 5.278-1.408 1.408-3.281 2.184-5.273 2.184-1.994 0-3.868-0.776-5.277-2.185C249.313 226.868 248.537 224.994 248.537 223z" fill="#000000" data-fill-palette-color="accent"></path></svg></g></svg></g></svg></g><defs></defs></svg><rect width="395.52" height="123.29487249268362" fill="none" stroke="none" visibility="hidden"></rect></g></svg></g></svg>