<svg xmlns="http://www.w3.org/2000/svg" version="1.1" xmlns:xlink="http://www.w3.org/1999/xlink" xmlns:svgjs="http://svgjs.dev/svgjs" width="1500" height="1500" viewBox="0 0 1500 1500"><rect width="1500" height="1500" fill="#ffffff"></rect><g transform="matrix(0.6666666666666666,0,0,0.6666666666666666,250.10534134077704,427.9276653171391)"><svg viewBox="0 0 383 247" data-background-color="#ffffff" preserveAspectRatio="xMidYMid meet" height="967" width="1500" xmlns="http://www.w3.org/2000/svg" xmlns:xlink="http://www.w3.org/1999/xlink"><g id="tight-bounds" transform="matrix(1,0,0,1,-0.04034573351759718,-0.09999999999999432)"><svg viewBox="0 0 383.0806914670352 247.2" height="247.2" width="383.0806914670352"><g><svg viewBox="0 0 395.52 255.22702182031927" height="247.2" width="383.0806914670352"><g transform="matrix(1,0,0,1,0,153.51572292225325)"><svg viewBox="0 0 395.52 101.71129889806602" height="101.71129889806602" width="395.52"><g id="textblocktransform"><svg viewBox="0 0 395.52 101.71129889806602" height="101.71129889806602" width="395.52" id="textblock"><g><svg viewBox="0 0 395.52 54.85821449501855" height="54.85821449501855" width="395.52"><g transform="matrix(1,0,0,1,0,0)"><svg width="395.52" viewBox="-1.4 -25.25 255.92000000000002 35.5" height="54.85821449501855" data-palette-color="#ee3e38"><g class="wordmark-text-0" data-fill-palette-color="primary" id="text-0"><path d="M10.25 0.6L10.25 0.6Q8.6 0.6 7.33-0.35 6.05-1.3 5.13-2.75 4.2-4.2 3.55-5.65L3.55-5.65Q3.2-5.2 2.83-4.5 2.45-3.8 1.95-2.85L1.95-2.85 0.4 0.25Q-1.4-0.45-1.4-1.65L-1.4-1.65Q-1.4-3.8 5.15-13.6L5.15-13.6Q11.5-23.1 13.9-24.8L13.9-24.8Q14.15-24.95 14.7-24.95L14.7-24.95Q16.25-24.95 16.25-24.15L16.25-24.15Q16.25-24 15.55-23.08 14.85-22.15 13.8-20.85 12.75-19.55 11.68-18.23 10.6-16.9 9.8-15.93 9-14.95 8.9-14.7L8.9-14.7Q13.45-17.05 16.15-17.05L16.15-17.05Q17.2-17.05 18.07-16.45 18.95-15.85 19.45-15 19.95-14.15 19.85-13.35L19.85-13.35Q19.45-10.5 15.85-8.65L15.85-8.65Q12.95-7.1 10.55-7.1L10.55-7.1Q7.95-7.1 6.95-7.75L6.95-7.75Q6.65-7.8 6.48-7.63 6.3-7.45 6.4-7.1L6.4-7.1Q7.8-0.9 11.05-0.9L11.05-0.9Q12.65-0.9 15.33-2.75 18-4.6 21-8.15L21-8.15Q21.35-8.5 21.65-8.5L21.65-8.5Q21.9-8.5 21.9-8.2L21.9-8.2Q21.9-7.95 21.55-7.45L21.55-7.45Q20.1-5.7 18.18-3.83 16.25-1.95 14.2-0.68 12.15 0.6 10.25 0.6ZM7.35-8.4L7.35-8.4Q9.6-8.4 13.25-10.25L13.25-10.25Q17.45-12.35 17.45-14.7L17.45-14.7Q17.45-15.1 17-15.5 16.55-15.9 16.05-15.9L16.05-15.9Q13.35-15.9 9.75-13.8L9.75-13.8Q5.8-11.4 4.95-8.55L4.95-8.55Q5.5-8.55 6.38-8.47 7.25-8.4 7.35-8.4ZM29.9 0.25L29.9 0.25Q27.75 0.25 26.95-0.88 26.15-2 26.15-3.9L26.15-3.9Q26.15-6 27.45-8.9L27.45-8.9Q27.95-10.05 28.5-10.98 29.05-11.9 29.65-12.7L29.65-12.7Q29.45-12.65 29.3-12.65 29.15-12.65 29-12.65L29-12.65Q27.8-12.65 27-14.35L27-14.35 23.3-9.55Q20.35-5.7 19.7-5.7L19.7-5.7Q19.45-5.7 19.45-5.9L19.45-5.9Q19.45-6.15 19.7-6.55L19.7-6.55Q19.85-6.85 20.3-7.35L20.3-7.35Q22.2-9.55 23.8-11.7 25.4-13.85 26.45-15.9L26.45-15.9Q27.6-20.25 29.35-20.25L29.35-20.25Q30.5-20.25 30.5-19.2L30.5-19.2Q30.5-18.25 29.25-16.7L29.25-16.7Q28.05-15.15 28.05-15.1L28.05-15.1Q28.05-14.05 29.6-14.05L29.6-14.05Q30.5-14.05 31.6-14.7L31.6-14.7 32.9-15.5Q33-15.55 33.2-15.55L33.2-15.55Q33.8-15.55 34.25-15.05 34.7-14.55 34.55-14.15L34.55-14.15 31.1-9.8Q27.9-5.7 27.9-3.2L27.9-3.2Q27.9-0.95 30.1-0.95L30.1-0.95Q31.6-0.95 33.32-1.85 35.05-2.75 36.67-4.08 38.3-5.4 39.4-6.65L39.4-6.65 40.6-8.05Q40.7-8.15 40.85-8.3 41-8.45 41.1-8.45L41.1-8.45Q41.45-8.45 41.45-8.1L41.45-8.1Q41.45-8 41.35-7.75 41.25-7.5 41-7.2L41-7.2 39.4-5.4Q38.25-4.1 36.57-2.78 34.9-1.45 33.12-0.6 31.35 0.25 29.9 0.25ZM50.45-17.2L50.45-17.2Q49.6-17.2 48.97-17.75 48.35-18.3 48.35-19L48.35-19Q48.35-20.4 50.25-20.4L50.25-20.4Q50.95-20.4 51.65-19.93 52.35-19.45 52.35-18.75L52.35-18.75Q52.35-18.15 51.7-17.68 51.05-17.2 50.45-17.2ZM41.2 0.55L41.2 0.55Q40.1 0.55 39.37-0.18 38.65-0.9 38.65-2.75L38.65-2.75Q38.65-3.8 39.12-5.18 39.6-6.55 40.32-7.95 41.05-9.35 41.75-10.45L41.75-10.45Q44.55-15 46.35-15.05L46.35-15.05Q46.8-15.05 47.45-14.68 48.1-14.3 48.1-13.85L48.1-13.85Q48.1-13.85 44.3-8.95L44.3-8.95Q40.55-4.1 40.55-2.05L40.55-2.05Q40.55-0.45 41.8-0.45L41.8-0.45Q42.6-0.45 43.87-1.13 45.15-1.8 46.55-2.85 47.95-3.9 49.22-5.1 50.5-6.3 51.3-7.3L51.3-7.3Q51.8-7.95 52.17-8.2 52.55-8.45 52.65-8.45L52.65-8.45Q52.85-8.45 52.85-8.15L52.85-8.15Q52.85-7.9 52.27-7.15 51.7-6.4 50.7-5.4L50.7-5.4Q49.5-4.2 48.05-2.8 46.6-1.4 44.9-0.43 43.2 0.55 41.2 0.55ZM56.44 0.1L56.44 0.1Q54.09 0.1 52.97-1.45 51.84-3 51.14-5.75L51.14-5.75Q50.24-4.85 49.89-4.85L49.89-4.85Q49.64-4.85 49.64-5.25L49.64-5.25Q49.64-5.55 49.89-5.8L49.89-5.8Q49.89-5.8 51.17-7.35 52.44-8.9 55.49-11.7L55.49-11.7 61.79-17.6Q63.09-18.85 63.87-19.5 64.64-20.15 64.99-20.15L64.99-20.15Q66.59-20.15 66.59-18.95L66.59-18.95Q66.59-18.35 65.94-17.55L65.94-17.55Q65.44-16.95 65.22-16.63 64.99-16.3 64.94-16.25L64.94-16.25Q64.04-14.7 63.29-10.7L63.29-10.7Q62.74-7.75 62.34-5.85 61.94-3.95 61.69-3.1L61.69-3.1Q63.79-3.15 65.84-4.4 67.89-5.65 70.24-8.5L70.24-8.5Q70.34-8.6 70.54-8.8 70.74-9 70.94-9L70.94-9Q71.24-9 71.24-8.75L71.24-8.75Q71.24-8.5 71.09-8.25 70.94-8 70.79-7.8L70.79-7.8Q69.24-5.95 67.89-4.78 66.54-3.6 65.04-2.93 63.54-2.25 61.49-1.8L61.49-1.8 59.89-0.75Q59.24-0.3 58.34-0.1 57.44 0.1 56.44 0.1ZM57.04-2.45L57.04-2.45Q58.19-2.45 58.94-3L58.94-3Q59.49-3.3 60.02-4.67 60.54-6.05 61.04-8.1L61.04-8.1Q61.44-9.85 61.67-11.53 61.89-13.2 62.09-14.75L62.09-14.75 62.29-16.45Q61.14-15.6 59.39-14 57.64-12.4 55.94-10.65L55.94-10.65Q54.24-8.9 53.74-8.08 53.24-7.25 53.19-6.85L53.19-6.85Q52.99-4.85 54.17-3.65 55.34-2.45 57.04-2.45ZM67.29 0.25L67.29 0.25Q65.84 0.25 65.84-0.6L65.84-0.6Q65.84-1.1 66.44-2.2L66.44-2.2Q68.74-6.3 70.57-9.47 72.39-12.65 73.79-14.85L73.79-14.85Q79.74-24.4 82.19-25.2L82.19-25.2Q82.29-25.2 82.34-25.23 82.39-25.25 82.44-25.25L82.44-25.25Q83.09-25.25 83.29-24.2L83.29-24.2Q83.14-23.15 78.09-16.6L78.09-16.6Q75.44-13.25 73.97-11.08 72.49-8.9 72.14-7.9L72.14-7.9Q73.79-9.1 75.69-10.45 77.59-11.8 79.39-13.03 81.19-14.25 82.64-15.03 84.09-15.8 84.89-15.9L84.89-15.9Q84.99-15.9 85.14-15.93 85.29-15.95 85.34-15.95L85.34-15.95Q86.74-15.95 86.74-14.65L86.74-14.65Q86.74-14.3 85.84-13.1 84.94-11.9 83.09-9.4L83.09-9.4Q79.79-5 79.79-2.8L79.79-2.8Q79.79-1.65 80.64-1.65L80.64-1.65Q81.54-1.7 82.72-2.45 83.89-3.2 85.09-4.3 86.29-5.4 87.27-6.48 88.24-7.55 88.74-8.15L88.74-8.15Q89.19-8.6 89.44-8.6L89.44-8.6Q89.64-8.6 89.64-8.4L89.64-8.4Q89.64-8 89.24-7.45L89.24-7.45Q88.64-6.7 87.47-5.5 86.29-4.3 84.92-3.08 83.54-1.85 82.32-1.03 81.09-0.2 80.49-0.2L80.49-0.2Q77.54-0.2 77.54-3.65L77.54-3.65Q77.54-5.6 79.34-8.75L79.34-8.75Q80.04-9.95 80.79-11.15 81.54-12.35 82.29-13.55L82.29-13.55Q75.89-10.35 70.69-4.1L70.69-4.1Q70.04-3.2 69.34-2.18 68.64-1.15 68.09-0.45 67.54 0.25 67.29 0.25ZM100.19 0.1L100.19 0.1Q98.84 0.1 98.29-0.68 97.74-1.45 97.74-2.6L97.74-2.6Q97.74-5.5 99.74-8.8L99.74-8.8 102.94-14Q99.54-11.5 96.19-7.75L96.19-7.75Q95.29-6.75 94.16-5.4 93.04-4.05 91.69-2.3L91.69-2.3Q89.89 0.05 89.54 0.05L89.54 0.05Q88.84 0.05 88.39-0.58 87.94-1.2 87.94-1.7L87.94-1.7Q87.94-2.1 88.19-3.18 88.44-4.25 88.79-5.05L88.79-5.05Q89.14-5.9 89.51-6.73 89.89-7.55 90.24-8.35L90.24-8.35 87.24-5.2Q87.14-5.1 86.64-4.6 86.14-4.1 85.84-4.1L85.84-4.1Q85.59-4.1 85.59-4.45L85.59-4.45Q85.59-4.55 85.66-4.73 85.74-4.9 85.99-5.15L85.99-5.15Q86.74-5.9 87.54-6.75 88.34-7.6 89.19-8.7L89.19-8.7Q89.64-9.25 90.54-10.38 91.44-11.5 92.51-12.8 93.59-14.1 94.54-15.2L94.54-15.2Q94.79-15.55 95.09-15.68 95.39-15.8 95.49-15.8L95.49-15.8Q96.84-15.8 96.84-14.75L96.84-14.75Q96.84-14.45 96.69-14.15L96.69-14.15Q92.19-7.95 91.29-4.7L91.29-4.7Q97.09-10.5 100.61-13.43 104.14-16.35 105.64-16.35L105.64-16.35Q106.44-16.35 106.86-16.1 107.29-15.85 107.29-15.15L107.29-15.15Q107.29-14.9 107.24-14.75L107.24-14.75Q107.09-14.4 105.19-11.95L105.19-11.95Q104.04-10.55 103.16-9.4 102.29-8.25 101.74-7.4L101.74-7.4Q100.84-6 100.39-4.78 99.94-3.55 99.94-2.7L99.94-2.7Q99.94-2.35 100.04-1.85 100.14-1.35 100.64-1.35L100.64-1.35Q101.79-1.35 104.24-3.35L104.24-3.35Q105.39-4.35 106.39-5.38 107.39-6.4 108.29-7.4L108.29-7.4Q108.49-7.6 108.94-8.18 109.39-8.75 109.49-8.75L109.49-8.75Q109.69-8.75 109.69-8.35L109.69-8.35Q109.69-8.15 109.46-7.68 109.24-7.2 108.99-6.95L108.99-6.95Q108.44-6.3 107.36-5.15 106.29-4 104.96-2.8 103.64-1.6 102.39-0.75 101.14 0.1 100.19 0.1ZM110.94 0.25L110.94 0.25Q109.74 0.25 108.54-0.6 107.34-1.45 107.19-2.6L107.19-2.6Q106.69-6.45 112.04-11.75L112.04-11.75Q117.34-17.05 121.59-17.05L121.59-17.05Q122.74-17.05 123.39-16.5L123.39-16.5Q123.74-16.15 123.91-15.55 124.09-14.95 124.19-14.95L124.19-14.95Q124.39-14.95 124.54-15.03 124.69-15.1 124.89-15.1L124.89-15.1Q125.49-15.1 125.94-14.65 126.39-14.2 126.44-13.85L126.44-13.85Q126.49-13.75 123.24-8.9L123.24-8.9Q119.99-4.15 120.29-2.45L120.29-2.45Q120.54-1.3 121.39-1.3L121.39-1.3Q123.99-1.3 130.89-9.9L130.89-9.9Q131.04-10.1 131.19-10.1L131.19-10.1Q131.44-10.1 131.44-9.75L131.44-9.75Q131.44-9.35 130.99-8.75L130.99-8.75Q124.64-0.2 121.24-0.2L121.24-0.2Q120.79-0.2 120.39-0.35L120.39-0.35Q118.19-1.2 118.19-3.65L118.19-3.65Q118.19-4.5 118.39-5.35L118.39-5.35 115.29-2.35Q113.89-0.95 112.76-0.35 111.64 0.25 110.94 0.25ZM110.49-0.85L110.49-0.85Q113.39-0.85 118.39-7.2L118.39-7.2 123.69-14.5Q123.29-15.2 122.39-15.2L122.39-15.2Q119.34-15.2 114.14-10.3L114.14-10.3Q108.74-5.3 109.29-2.05L109.29-2.05Q109.54-0.85 110.49-0.85ZM139.98 0.1L139.98 0.1Q138.78 0.1 138.78-1.25L138.78-1.25Q139.33-4.05 141.03-7.55L141.03-7.55Q141.83-9.25 142.66-10.9 143.48-12.55 144.28-14.25L144.28-14.25Q142.43-13 140.58-11.48 138.73-9.95 136.98-8.05L136.98-8.05Q134.93-5.85 132.23-2.4L132.23-2.4Q130.28 0.05 129.98 0.05L129.98 0.05Q129.28 0.05 128.83-0.6 128.38-1.25 128.38-1.7L128.38-1.7Q128.38-2.35 129.53-5.05L129.53-5.05Q129.88-5.9 130.26-6.73 130.63-7.55 130.98-8.35L130.98-8.35 127.98-5.2Q127.88-5.1 127.38-4.6 126.88-4.1 126.58-4.1L126.58-4.1Q126.33-4.1 126.33-4.45L126.33-4.45Q126.33-4.55 126.41-4.73 126.48-4.9 126.73-5.15L126.73-5.15Q127.48-5.9 128.28-6.75 129.08-7.6 129.93-8.7L129.93-8.7Q130.58-9.55 131.81-11.23 133.03-12.9 134.83-15.45L134.83-15.45Q135.38-16.2 136.38-16.2L136.38-16.2Q137.38-16.2 137.38-15.25L137.38-15.25Q137.38-14.9 134.83-10.6L134.83-10.6Q133.53-8.3 132.76-6.85 131.98-5.4 131.78-4.7L131.78-4.7Q132.88-5.9 134.41-7.4 135.93-8.9 137.93-10.75L137.93-10.75Q144.08-16.45 146.03-16.45L146.03-16.45Q146.58-16.45 147.11-16.1 147.63-15.75 147.63-15.2L147.63-15.2Q147.63-14.95 145.68-11.55L145.68-11.55Q143.78-8.1 143.58-7.45L143.58-7.45Q149.13-12.1 149.13-12.15L149.13-12.15Q153.83-15.8 155.88-15.8L155.88-15.8Q156.48-15.8 157.01-15.43 157.53-15.05 157.53-14.55L157.53-14.55Q157.53-14.45 154.33-10.35L154.33-10.35Q151.03-6.2 150.63-3.55L150.63-3.55Q150.43-1.75 152.48-1.75L152.48-1.75Q153.73-1.75 155.98-3.35 158.23-4.95 160.68-7.75L160.68-7.75Q160.98-8.1 161.33-8.43 161.68-8.75 161.93-8.75L161.93-8.75Q162.23-8.75 162.23-8.5L162.23-8.5Q162.23-8.15 161.78-7.7L161.78-7.7Q160.48-6.15 158.71-4.5 156.93-2.85 155.18-1.73 153.43-0.6 152.08-0.6L152.08-0.6Q148.68-0.6 148.68-3.75L148.68-3.75Q148.68-4.85 149.28-6.33 149.88-7.8 150.48-9L150.48-9Q151.93-11.8 153.63-13.95L153.63-13.95Q152.03-13.15 150.31-11.85 148.58-10.55 146.73-8.8L146.73-8.8Q142.43-4.6 140.83-0.3L140.83-0.3Q140.58 0.1 139.98 0.1ZM162.08 0.55L162.08 0.55Q159.83 0.55 159.83-2.3L159.83-2.3Q159.83-3.4 160.51-4.93 161.18-6.45 162.43-8.15L162.43-8.15Q162.43-8.15 161.53-7.3 160.63-6.45 159.48-5.15L159.48-5.15Q159.28-4.95 158.98-4.95L158.98-4.95Q158.78-4.95 158.78-5.2L158.78-5.2Q158.78-5.45 159.23-6.05L159.23-6.05 166.13-14.15Q167.43-15.65 168.98-15.65L168.98-15.65Q170.13-15.65 170.13-14.75L170.13-14.75Q170.13-14.4 169.83-14.1L169.83-14.1Q168.88-13.2 167.51-11.55 166.13-9.9 164.83-8 163.53-6.1 162.66-4.38 161.78-2.65 161.78-1.6L161.78-1.6Q161.78-0.7 162.38-0.7L162.38-0.7Q162.73-0.7 163.48-0.98 164.23-1.25 165.48-2.13 166.73-3 168.48-4.85L168.48-4.85Q168.78-5.15 170.08-6.65 171.38-8.15 173.58-10.95L173.58-10.95Q177.48-15.8 178.68-15.8L178.68-15.8Q180.33-15.8 180.48-14.45L180.48-14.45Q180.58-14 178.38-11.5L178.38-11.5Q175.53-8.05 174.48-6.55L174.48-6.55Q172.53-3.7 172.53-2.1L172.53-2.1Q172.53-1 173.28-1L173.28-1Q174.03-1 175.21-1.73 176.38-2.45 177.68-3.58 178.98-4.7 180.21-5.93 181.43-7.15 182.33-8.2L182.33-8.2Q182.63-8.55 182.93-8.55L182.93-8.55Q183.23-8.55 183.23-8.25L183.23-8.25Q183.23-8.15 183.18-7.95 183.13-7.75 182.88-7.5L182.88-7.5Q182.08-6.6 180.83-5.28 179.58-3.95 178.13-2.65 176.68-1.35 175.33-0.5 173.98 0.35 173.03 0.35L173.03 0.35Q171.88 0.35 171.03-0.28 170.18-0.9 170.18-2L170.18-2Q170.18-3.1 170.53-4.23 170.88-5.35 171.08-6.15L171.08-6.15Q168.73-3.4 166.96-1.95 165.18-0.5 163.98 0.03 162.78 0.55 162.08 0.55ZM191.18 0.25L191.18 0.25Q189.03 0.25 188.23-0.88 187.43-2 187.43-3.9L187.43-3.9Q187.43-6 188.73-8.9L188.73-8.9Q189.23-10.05 189.78-10.98 190.33-11.9 190.93-12.7L190.93-12.7Q190.73-12.65 190.58-12.65 190.43-12.65 190.28-12.65L190.28-12.65Q189.08-12.65 188.28-14.35L188.28-14.35 184.58-9.55Q181.63-5.7 180.98-5.7L180.98-5.7Q180.73-5.7 180.73-5.9L180.73-5.9Q180.73-6.15 180.98-6.55L180.98-6.55Q181.13-6.85 181.58-7.35L181.58-7.35Q183.48-9.55 185.08-11.7 186.68-13.85 187.73-15.9L187.73-15.9Q188.88-20.25 190.63-20.25L190.63-20.25Q191.78-20.25 191.78-19.2L191.78-19.2Q191.78-18.25 190.53-16.7L190.53-16.7Q189.33-15.15 189.33-15.1L189.33-15.1Q189.33-14.05 190.88-14.05L190.88-14.05Q191.78-14.05 192.88-14.7L192.88-14.7 194.18-15.5Q194.28-15.55 194.48-15.55L194.48-15.55Q195.08-15.55 195.53-15.05 195.98-14.55 195.83-14.15L195.83-14.15 192.38-9.8Q189.18-5.7 189.18-3.2L189.18-3.2Q189.18-0.95 191.38-0.95L191.38-0.95Q192.88-0.95 194.6-1.85 196.33-2.75 197.95-4.08 199.58-5.4 200.68-6.65L200.68-6.65 201.88-8.05Q201.98-8.15 202.13-8.3 202.28-8.45 202.38-8.45L202.38-8.45Q202.73-8.45 202.73-8.1L202.73-8.1Q202.73-8 202.63-7.75 202.53-7.5 202.28-7.2L202.28-7.2 200.68-5.4Q199.53-4.1 197.85-2.78 196.18-1.45 194.4-0.6 192.63 0.25 191.18 0.25ZM203.78 0.3L203.78 0.3Q202.18 0.3 201.25-0.48 200.33-1.25 200.33-3.25L200.33-3.25Q200.33-4.4 201.03-6.18 201.73-7.95 202.78-10 203.83-12.05 204.88-14.05L204.88-14.05Q204.23-13.9 203.73-13.9L203.73-13.9Q202.23-13.9 202.23-15.05L202.23-15.05Q202.23-15.6 202.65-15.9 203.08-16.2 203.43-16.25L203.43-16.25Q203.43-16.25 203.55-16.25 203.68-16.25 203.88-16.3L203.88-16.3 206.78-16.3Q207.68-17.45 208.63-18.75L208.63-18.75Q209.98-20.45 210.78-20.75L210.78-20.75 210.93-20.75Q211.28-20.75 211.93-20.4L211.93-20.4Q212.73-19.95 212.73-19.5L212.73-19.5Q212.73-18.85 210.33-16.15L210.33-16.15Q210.78-16.1 211.63-16.1 212.48-16.1 213.73-16.1L213.73-16.1Q214.33-16.1 215.45-16.1 216.58-16.1 217.8-16.13 219.03-16.15 219.93-16.18 220.83-16.2 220.93-16.2L220.93-16.2Q221.08-16.15 221.08-16.05L221.08-16.05Q221.08-15.6 215.18-14.85L215.18-14.85Q211.83-14.4 210.05-14.15 208.28-13.9 208.13-13.85L208.13-13.85Q207.43-13.25 206.43-11.8 205.43-10.35 204.43-8.55 203.43-6.75 202.75-5.13 202.08-3.5 202.08-2.6L202.08-2.6Q202.08-1.8 202.68-1.28 203.28-0.75 204.63-0.75L204.63-0.75Q205.53-0.75 206.78-1.15 208.03-1.55 209.15-2.08 210.28-2.6 210.78-2.9L210.78-2.9Q212.08-3.7 213.65-5.03 215.23-6.35 216.78-8.05L216.78-8.05Q217.48-8.75 217.73-8.75L217.73-8.75Q217.88-8.75 217.88-8.55L217.88-8.55Q217.88-8.15 217.13-7.25L217.13-7.25Q215.93-5.8 214.45-4.48 212.98-3.15 211.18-2.05L211.18-2.05Q209.13-0.8 207.25-0.25 205.38 0.3 203.78 0.3ZM214.17 0.25L214.17 0.25Q212.72 0.25 212.72-0.6L212.72-0.6Q212.72-1.1 213.32-2.2L213.32-2.2Q215.62-6.3 217.45-9.47 219.27-12.65 220.67-14.85L220.67-14.85Q226.62-24.4 229.07-25.2L229.07-25.2Q229.17-25.2 229.22-25.23 229.27-25.25 229.32-25.25L229.32-25.25Q229.97-25.25 230.17-24.2L230.17-24.2Q230.02-23.15 224.97-16.6L224.97-16.6Q222.32-13.25 220.85-11.08 219.37-8.9 219.02-7.9L219.02-7.9Q220.67-9.1 222.57-10.45 224.47-11.8 226.27-13.03 228.07-14.25 229.52-15.03 230.97-15.8 231.77-15.9L231.77-15.9Q231.87-15.9 232.02-15.93 232.17-15.95 232.22-15.95L232.22-15.95Q233.62-15.95 233.62-14.65L233.62-14.65Q233.62-14.3 232.72-13.1 231.82-11.9 229.97-9.4L229.97-9.4Q226.67-5 226.67-2.8L226.67-2.8Q226.67-1.65 227.52-1.65L227.52-1.65Q228.42-1.7 229.6-2.45 230.77-3.2 231.97-4.3 233.17-5.4 234.15-6.48 235.12-7.55 235.62-8.15L235.62-8.15Q236.07-8.6 236.32-8.6L236.32-8.6Q236.52-8.6 236.52-8.4L236.52-8.4Q236.52-8 236.12-7.45L236.12-7.45Q235.52-6.7 234.35-5.5 233.17-4.3 231.8-3.08 230.42-1.85 229.2-1.03 227.97-0.2 227.37-0.2L227.37-0.2Q224.42-0.2 224.42-3.65L224.42-3.65Q224.42-5.6 226.22-8.75L226.22-8.75Q226.92-9.95 227.67-11.15 228.42-12.35 229.17-13.55L229.17-13.55Q222.77-10.35 217.57-4.1L217.57-4.1Q216.92-3.2 216.22-2.18 215.52-1.15 214.97-0.45 214.42 0.25 214.17 0.25ZM235.47 10.25L235.47 10.25Q233.87 10.25 232.67 8.9L232.67 8.9Q231.47 7.5 231.52 5.8L231.52 5.8Q232.12 6.55 233.12 7.55L233.12 7.55Q234.42 8.8 235.67 8.8L235.67 8.8Q238.52 8.8 241.82 4.25L241.82 4.25Q242.97 2.65 244.2 0.53 245.42-1.6 246.52-4.2L246.52-4.2 248.42-8.8 241.07-3.05Q237.67-0.4 235.62-0.4L235.62-0.4Q234.52-0.4 233.87-1.2 233.22-2 233.22-2.85L233.22-2.85Q233.22-5 236.92-9.9L236.92-9.9Q240.62-14.85 242.47-14.85L242.47-14.85Q244.02-14.85 244.02-13.7L244.02-13.7Q244.02-13.25 239.57-8.5L239.57-8.5Q235.17-3.8 235.17-2.15L235.17-2.15Q235.17-1.5 236.02-1.5L236.02-1.5Q237.62-1.5 242.97-5.65L242.97-5.65Q245.17-7.4 246.87-8.85 248.57-10.3 249.72-11.45L249.72-11.45Q250.12-11.95 250.52-12.43 250.92-12.9 251.27-13.4L251.27-13.4Q252.22-14.5 253.17-14.5L253.17-14.5Q254.52-14.5 254.52-13.4L254.52-13.4Q254.52-13.2 252.42-10.1L252.42-10.1Q251.32-8.4 250.67-7.48 250.02-6.55 249.92-6.3L249.92-6.3Q248.37-3.3 245.17 2.45L245.17 2.45Q240.32 10.25 235.47 10.25Z" fill="#000000" data-fill-palette-color="primary"></path></g></svg></g></svg></g><g transform="matrix(1,0,0,1,0,67.80892234014455)"><svg viewBox="0 0 395.52 33.902376557921464" height="33.902376557921464" width="395.52"><g transform="matrix(1,0,0,1,0,0)"><svg width="395.52" viewBox="2.49 -36.01 542.59 46.51" height="33.902376557921464" data-palette-color="#ee3e38"><path d="M2.49-21.19L2.49-26 8.84-26 8.84-34.01 13.65-34.01 13.65-26 22.19-26 22.19-21.19 13.65-21.19 13.65-4.81 22.19-4.81 22.19 0 13.65 0Q12.67 0 11.79-0.38 10.91-0.76 10.25-1.4 9.59-2.05 9.22-2.93 8.84-3.81 8.84-4.81L8.84-4.81 8.84-21.19 2.49-21.19ZM57.66-21.19L57.66 0 52.85 0 52.85-21.19 39.45-21.19 39.45 0 34.66 0 34.66-36.01 39.45-36.01 39.45-21.41Q39.5-22.36 39.89-23.21 40.28-24.05 40.93-24.67 41.57-25.29 42.43-25.65 43.28-26 44.26-26L44.26-26 52.85-26Q53.85-26 54.73-25.62 55.61-25.24 56.26-24.6 56.9-23.95 57.28-23.07 57.66-22.19 57.66-21.19L57.66-21.19ZM70.38-26L75.19-26 75.19 0 70.38 0 70.38-26ZM70.13-31.01L70.13-36.01 75.43-36.01 75.43-31.01 70.13-31.01ZM87.39-4.81L103.6-4.81 103.6-10.84 92.2-10.84Q91.2-10.84 90.32-11.22 89.44-11.6 88.79-12.24 88.15-12.89 87.77-13.77 87.39-14.65 87.39-15.65L87.39-15.65 87.39-21.19Q87.39-22.19 87.77-23.07 88.15-23.95 88.79-24.6 89.44-25.24 90.32-25.62 91.2-26 92.2-26L92.2-26 107.41-26 107.41-21.19 92.2-21.19 92.2-15.65 103.6-15.65Q104.6-15.65 105.47-15.27 106.33-14.89 106.99-14.25 107.65-13.6 108.03-12.72 108.41-11.84 108.41-10.84L108.41-10.84 108.41-4.81Q108.41-3.81 108.03-2.93 107.65-2.05 106.99-1.4 106.33-0.76 105.47-0.38 104.6 0 103.6 0L103.6 0 87.39 0 87.39-4.81ZM140.07-26L144.88-26 144.88 0 140.07 0 140.07-26ZM139.82-31.01L139.82-36.01 145.12-36.01 145.12-31.01 139.82-31.01ZM157.08-4.81L173.29-4.81 173.29-10.84 161.89-10.84Q160.89-10.84 160.01-11.22 159.13-11.6 158.48-12.24 157.83-12.89 157.46-13.77 157.08-14.65 157.08-15.65L157.08-15.65 157.08-21.19Q157.08-22.19 157.46-23.07 157.83-23.95 158.48-24.6 159.13-25.24 160.01-25.62 160.89-26 161.89-26L161.89-26 177.1-26 177.1-21.19 161.89-21.19 161.89-15.65 173.29-15.65Q174.29-15.65 175.16-15.27 176.02-14.89 176.68-14.25 177.34-13.6 177.72-12.72 178.1-11.84 178.1-10.84L178.1-10.84 178.1-4.81Q178.1-3.81 177.72-2.93 177.34-2.05 176.68-1.4 176.02-0.76 175.16-0.38 174.29 0 173.29 0L173.29 0 157.08 0 157.08-4.81ZM241.1-21.19L230.12-21.19 230.12 0 225.31 0 225.31-21.19 214.3-21.19 214.3 0 209.51 0 209.51-26 214.3-26 214.3-21.41Q214.34-22.36 214.74-23.21 215.13-24.05 215.77-24.67 216.42-25.29 217.27-25.65 218.13-26 219.11-26L219.11-26 225.31-26Q226.26-26 227.11-25.65 227.97-25.29 228.63-24.67 229.29-24.05 229.69-23.21 230.09-22.36 230.12-21.41L230.12-21.41Q230.16-22.36 230.54-23.21 230.92-24.05 231.57-24.67 232.22-25.29 233.07-25.65 233.92-26 234.9-26L234.9-26 241.1-26Q242.1-26 242.98-25.62 243.86-25.24 244.51-24.6 245.16-23.95 245.53-23.07 245.91-22.19 245.91-21.19L245.91-21.19 245.91 0 241.1 0 241.1-21.19ZM264.93 10.5L260.14 10.5 265.59-2.34 255.38-26 260.43-26 268.03-8.11 275.62-26 280.67-26 264.93 10.5ZM332.59-21.19L332.59-4.81Q332.59-3.81 332.21-2.93 331.84-2.05 331.19-1.4 330.54-0.76 329.66-0.38 328.78 0 327.78 0L327.78 0 314.38 0 314.38 10.5 309.6 10.5 309.6-26 314.38-26 314.38-21.61Q314.45-22.53 314.87-23.33 315.28-24.12 315.92-24.72 316.55-25.32 317.4-25.66 318.24-26 319.19-26L319.19-26 327.78-26Q328.78-26 329.66-25.62 330.54-25.24 331.19-24.6 331.84-23.95 332.21-23.07 332.59-22.19 332.59-21.19L332.59-21.19ZM314.38-4.81L327.78-4.81 327.78-21.19 314.38-21.19 314.38-4.81ZM367.55-21.19L367.55-4.81Q367.55-3.81 367.17-2.93 366.79-2.05 366.15-1.4 365.5-0.76 364.63-0.38 363.77 0 362.76 0L362.76 0 349.85 0Q348.87 0 347.99-0.38 347.12-0.76 346.47-1.4 345.82-2.05 345.44-2.93 345.06-3.81 345.06-4.81L345.06-4.81 345.06-21.19Q345.06-22.19 345.44-23.07 345.82-23.95 346.47-24.6 347.12-25.24 347.99-25.62 348.87-26 349.85-26L349.85-26 362.76-26Q363.77-26 364.63-25.62 365.5-25.24 366.15-24.6 366.79-23.95 367.17-23.07 367.55-22.19 367.55-21.19L367.55-21.19ZM362.76-21.19L349.85-21.19 349.85-4.81 362.76-4.81 362.76-21.19ZM394.72-21.19L384.81-21.19 384.81 0 380.02 0 380.02-26 384.81-26 384.81-21.41Q384.85-22.36 385.25-23.21 385.64-24.05 386.28-24.67 386.93-25.29 387.78-25.65 388.64-26 389.62-26L389.62-26 394.72-26Q395.72-26 396.59-25.62 397.45-25.24 398.11-24.6 398.77-23.95 399.15-23.07 399.53-22.19 399.53-21.19L399.53-21.19 399.53-16.8 394.72-16.8 394.72-21.19ZM408.46-21.19L408.46-26 414.81-26 414.81-34.01 419.62-34.01 419.62-26 428.16-26 428.16-21.19 419.62-21.19 419.62-4.81 428.16-4.81 428.16 0 419.62 0Q418.64 0 417.76-0.38 416.88-0.76 416.22-1.4 415.56-2.05 415.18-2.93 414.81-3.81 414.81-4.81L414.81-4.81 414.81-21.19 408.46-21.19ZM458.82-31.2L450.28-31.2 450.28-26 458.82-26 458.82-21.19 450.28-21.19 450.28 0 445.47 0 445.47-21.19 439.12-21.19 439.12-26 445.47-26 445.47-31.2Q445.47-32.2 445.84-33.07 446.22-33.94 446.88-34.59 447.54-35.25 448.42-35.63 449.3-36.01 450.28-36.01L450.28-36.01 458.82-36.01 458.82-31.2ZM470.05-26L474.86-26 474.86 0 470.05 0 470.05-26ZM469.8-31.01L469.8-36.01 475.1-36.01 475.1-31.01 469.8-31.01ZM487.57-36.01L492.36-36.01 492.36 0 487.57 0 487.57-36.01ZM505.07-26L509.88-26 509.88 0 505.07 0 505.07-26ZM504.83-31.01L504.83-36.01 510.13-36.01 510.13-31.01 504.83-31.01ZM545.08-21.19L545.08-4.81Q545.08-3.81 544.7-2.93 544.33-2.05 543.68-1.4 543.03-0.76 542.16-0.38 541.3 0 540.3 0L540.3 0 527.38 0Q526.41 0 525.53-0.38 524.65-0.76 524-1.4 523.35-2.05 522.98-2.93 522.6-3.81 522.6-4.81L522.6-4.81 522.6-21.19Q522.6-22.19 522.98-23.07 523.35-23.95 524-24.6 524.65-25.24 525.53-25.62 526.41-26 527.38-26L527.38-26 540.3-26Q541.3-26 542.16-25.62 543.03-25.24 543.68-24.6 544.33-23.95 544.7-23.07 545.08-22.19 545.08-21.19L545.08-21.19ZM540.3-21.19L527.38-21.19 527.38-4.81 540.3-4.81 540.3-21.19Z" opacity="1" transform="matrix(1,0,0,1,0,0)" fill="#000000" class="slogan-text-1" data-fill-palette-color="secondary" id="text-1"></path></svg></g></svg></g></svg></g></svg></g><g transform="matrix(1,0,0,1,120.19298754654793,0)"><svg viewBox="0 0 155.13402490690413 140.56501507712724" height="140.56501507712724" width="155.13402490690413"><g><svg xmlns="http://www.w3.org/2000/svg" data-name="Layer 1" viewBox="0.0004899999999992133 6 128.02941019650075 116.00586" x="0" y="0" width="155.13402490690413" height="140.56501507712724" class="icon-icon-0" data-fill-palette-color="accent" id="icon-0"><path d="M74 38a2 2 0 0 0-2 2V52a2 2 0 0 0 2 2H92a2 2 0 0 0 0-4H76V40A2 2 0 0 0 74 38Z" fill="#000000" data-fill-palette-color="accent"></path><path d="M28 74h-26a2 2 0 0 0 0 4h16v34h-16a2 2 0 0 0 0 4h26a8.009 8.009 0 0 0 8-8V82A8.009 8.009 0 0 0 28 74Zm4 34a4.004 4.004 0 0 1-4 4h-6V78h6a4.004 4.004 0 0 1 4 4Z" fill="#000000" data-fill-palette-color="accent"></path><path d="M47.301 16.474a1.999 1.999 0 0 0-2.828 0l-6 6a2 2 0 1 0 2.828 2.828l1.586-1.586 2.881 2.88a37.895 37.895 0 0 0-3.81 45.793c1.311-0.351 2.702-0.696 4.135-1.009A33.794 33.794 0 0 1 40.064 54H45a2 2 0 0 0 0-4H40.064a33.867 33.867 0 0 1 8.538-20.57l3.474 3.474a2 2 0 0 0 2.828-2.828L51.432 26.604A33.844 33.844 0 0 1 72 18.064V23a2 2 0 0 0 4 0V18.064a33.856 33.856 0 0 1 20.57 8.538L93.096 30.076a2 2 0 1 0 2.828 2.828l3.474-3.474A33.856 33.856 0 0 1 107.936 50H103a2 2 0 0 0 0 4h4.935a33.861 33.861 0 0 1-8.537 20.57L95.924 71.096a2 2 0 0 0-2.828 2.828l3.474 3.474c-0.18 0.16-0.367 0.312-0.55 0.469a12.289 12.289 0 0 1 3.424 2.33l0 0a37.929 37.929 0 0 0 2.788-53.601l2.881-2.88 1.586 1.586a2 2 0 0 0 2.828-2.828l-6-6a2 2 0 0 0-2.828 2.828l1.585 1.585-2.88 2.881A37.848 37.848 0 0 0 76 14.053V10h5a2 2 0 0 0 0-4H67a2 2 0 0 0 0 4h5v4.053a37.848 37.848 0 0 0-23.404 9.715l-2.88-2.881 1.585-1.585A1.999 1.999 0 0 0 47.301 16.474Z" fill="#000000" data-fill-palette-color="accent"></path><path d="M58.581 78.071a31.846 31.846 0 0 1 11.011 3.168 26.859 26.859 0 0 0 5.183 1.91 43.26 43.26 0 0 0 7.603 0.619c4.725 0.128 10.081 0.271 11.811 2.504a4.36 4.36 0 0 1 0.618 3.832c-0.478 1.519-1.825 2.662-3.897 3.307-5.319 1.657-19.869 3.188-25.887 2.361a2 2 0 1 0-0.543 3.963 36.738 36.738 0 0 0 4.779 0.258c7.457 0 18.196-1.316 22.841-2.763 3.331-1.037 5.647-3.142 6.523-5.925a8.413 8.413 0 0 0-1.272-7.482C94.46 80.092 88.373 79.928 82.486 79.77a40.858 40.858 0 0 1-6.856-0.529 23.614 23.614 0 0 1-4.405-1.653 35.734 35.734 0 0 0-12.281-3.501c-6.053-0.55-14.588 1.668-19.866 3.306a11.918 11.918 0 0 1 0.888 3.917C44.92 79.756 53.113 77.566 58.581 78.071Z" fill="#000000" data-fill-palette-color="accent"></path><path d="M118.673 74.405c-2.382 0.708-9.962 6.082-16.233 10.721a12.55 12.55 0 0 1 0.519 4.605C110.279 84.278 118.069 78.758 119.814 78.239a3.246 3.246 0 0 1 3.321 0.473 4.199 4.199 0 0 1 0.596 4.11C122.309 86.999 95.756 108.992 84.811 115.059c-9.547 5.291-15.834 2.295-20.424 0.106a111.297 111.297 0 0 0-24.387-7.942V108a11.942 11.942 0 0 1-0.445 3.196 109.198 109.198 0 0 1 23.11 7.58 26.673 26.673 0 0 0 11.892 3.23 24.9 24.9 0 0 0 12.193-3.449c9.583-5.312 38.613-28.12 40.767-34.446a8.088 8.088 0 0 0-1.499-8.172C124.979 74.859 122.645 73.221 118.673 74.405Z" fill="#000000" data-fill-palette-color="accent"></path></svg></g></svg></g><g></g></svg></g><defs></defs></svg><rect width="383.0806914670352" height="247.2" fill="none" stroke="none" visibility="hidden"></rect></g></svg></g></svg>