<svg xmlns="http://www.w3.org/2000/svg" version="1.1" xmlns:xlink="http://www.w3.org/1999/xlink" xmlns:svgjs="http://svgjs.dev/svgjs" width="1500" height="1500" viewBox="0 0 1500 1500"><rect width="1500" height="1500" fill="#a44a0c"></rect><g transform="matrix(0.6666666666666666,0,0,0.6666666666666666,249.39393939393938,696.524144842048)"><svg viewBox="0 0 396 43" data-background-color="#a44a0c" preserveAspectRatio="xMidYMid meet" height="162" width="1500" xmlns="http://www.w3.org/2000/svg" xmlns:xlink="http://www.w3.org/1999/xlink"><g id="tight-bounds" transform="matrix(1,0,0,1,0.2400000000000091,-0.20868729822282717)"><svg viewBox="0 0 395.52 43.417374596445676" height="43.417374596445676" width="395.52"><g><svg viewBox="0 0 446.8948801407157 49.05694381144606" height="43.417374596445676" width="395.52"><g><svg viewBox="0 0 395.52000000000004 49.05694381144606" height="49.05694381144606" width="395.52000000000004"><g id="textblocktransform"><svg viewBox="0 0 395.52000000000004 49.05694381144606" height="49.05694381144606" width="395.52000000000004" id="textblock"><g><svg viewBox="0 0 395.52000000000004 49.05694381144606" height="49.05694381144606" width="395.52000000000004"><g transform="matrix(1,0,0,1,0,0)"><svg width="395.52000000000004" viewBox="4.49 -36.01 374.95 46.51" height="49.05694381144606" data-palette-color="#e5ddc6"><g class="wordmark-text-0" data-fill-palette-color="primary" id="text-0"><path d="M4.49-35.01L9.5-35.01 9.5-19.9 26.2-35.01 33.25-35.01 14.31-17.85 34.01 0 26.95 0 9.5-15.75 9.5 0 4.49 0 4.49-35.01ZM52.76-21.19L42.84-21.19 42.84 0 38.06 0 38.06-26 42.84-26 42.84-21.41Q42.89-22.36 43.28-23.21 43.67-24.05 44.32-24.67 44.97-25.29 45.82-25.65 46.68-26 47.65-26L47.65-26 52.76-26Q53.76-26 54.62-25.62 55.49-25.24 56.15-24.6 56.81-23.95 57.19-23.07 57.57-22.19 57.57-21.19L57.57-21.19 57.57-16.8 52.76-16.8 52.76-21.19ZM63.79-26L68.6-26 68.6 0 63.79 0 63.79-26ZM63.54-31.01L63.54-36.01 68.84-36.01 68.84-31.01 63.54-31.01ZM76.34-4.81L92.55-4.81 92.55-10.84 81.14-10.84Q80.14-10.84 79.26-11.22 78.39-11.6 77.74-12.24 77.09-12.89 76.71-13.77 76.34-14.65 76.34-15.65L76.34-15.65 76.34-21.19Q76.34-22.19 76.71-23.07 77.09-23.95 77.74-24.6 78.39-25.24 79.26-25.62 80.14-26 81.14-26L81.14-26 96.35-26 96.35-21.19 81.14-21.19 81.14-15.65 92.55-15.65Q93.55-15.65 94.41-15.27 95.28-14.89 95.94-14.25 96.6-13.6 96.98-12.72 97.36-11.84 97.36-10.84L97.36-10.84 97.36-4.81Q97.36-3.81 96.98-2.93 96.6-2.05 95.94-1.4 95.28-0.76 94.41-0.38 93.55 0 92.55 0L92.55 0 76.34 0 76.34-4.81ZM127.85-21.19L127.85 0 123.04 0 123.04-21.19 109.63-21.19 109.63 0 104.85 0 104.85-36.01 109.63-36.01 109.63-21.41Q109.68-22.36 110.07-23.21 110.46-24.05 111.11-24.67 111.76-25.29 112.61-25.65 113.47-26 114.44-26L114.44-26 123.04-26Q124.04-26 124.92-25.62 125.8-25.24 126.44-24.6 127.09-23.95 127.47-23.07 127.85-22.19 127.85-21.19L127.85-21.19ZM158.85-21.19L158.85 0 154.04 0 154.04-21.19 140.64-21.19 140.64 0 135.85 0 135.85-26 140.64-26 140.64-21.41Q140.69-22.36 141.08-23.21 141.47-24.05 142.11-24.67 142.76-25.29 143.62-25.65 144.47-26 145.45-26L145.45-26 154.04-26Q155.04-26 155.92-25.62 156.8-25.24 157.45-24.6 158.09-23.95 158.47-23.07 158.85-22.19 158.85-21.19L158.85-21.19ZM166.86-4.81L166.86-11.35Q166.86-12.35 167.23-13.22 167.61-14.09 168.26-14.75 168.91-15.41 169.78-15.78 170.66-16.16 171.64-16.16L171.64-16.16 184.04-16.16 184.04-21.19 168.34-21.19 168.34-26 184.04-26Q185.04-26 185.92-25.62 186.8-25.24 187.45-24.6 188.1-23.95 188.47-23.07 188.85-22.19 188.85-21.19L188.85-21.19 188.85 0 184.04 0 184.04-4.39Q183.97-3.49 183.55-2.69 183.14-1.88 182.49-1.28 181.85-0.68 181.02-0.34 180.19 0 179.26 0L179.26 0 171.64 0Q170.66 0 169.78-0.38 168.91-0.76 168.26-1.4 167.61-2.05 167.23-2.93 166.86-3.81 166.86-4.81L166.86-4.81ZM171.64-11.35L171.64-4.81 184.04-4.81 184.04-11.35 171.64-11.35ZM216.9 0L215.41 0 202.35-25.66 202.35 0 197.35 0 197.35-35.01 202.81-35.01 216.14-8.64 229.5-35.01 234.94-35.01 234.94 0 229.96 0 229.96-25.66 216.9 0ZM243.46-4.81L243.46-26 248.25-26 248.25-4.81 261.65-4.81 261.65-26 266.46-26 266.46 0 261.65 0 261.65-4.39Q261.58-3.49 261.16-2.69 260.75-1.88 260.1-1.28 259.45-0.68 258.62-0.34 257.79 0 256.86 0L256.86 0 248.25 0Q247.27 0 246.39-0.38 245.51-0.76 244.87-1.4 244.22-2.05 243.84-2.93 243.46-3.81 243.46-4.81L243.46-4.81ZM289.16-21.19L279.25-21.19 279.25 0 274.46 0 274.46-26 279.25-26 279.25-21.41Q279.3-22.36 279.69-23.21 280.08-24.05 280.73-24.67 281.37-25.29 282.23-25.65 283.08-26 284.06-26L284.06-26 289.16-26Q290.16-26 291.03-25.62 291.9-25.24 292.56-24.6 293.21-23.95 293.59-23.07 293.97-22.19 293.97-21.19L293.97-21.19 293.97-16.8 289.16-16.8 289.16-21.19ZM298.44-21.19L298.44-26 304.78-26 304.78-34.01 309.59-34.01 309.59-26 318.14-26 318.14-21.19 309.59-21.19 309.59-4.81 318.14-4.81 318.14 0 309.59 0Q308.62 0 307.74-0.38 306.86-0.76 306.2-1.4 305.54-2.05 305.16-2.93 304.78-3.81 304.78-4.81L304.78-4.81 304.78-21.19 298.44-21.19ZM349.14-21.19L349.14 0 344.33 0 344.33-21.19 330.93-21.19 330.93 0 326.14 0 326.14-36.01 330.93-36.01 330.93-21.41Q330.98-22.36 331.37-23.21 331.76-24.05 332.41-24.67 333.05-25.29 333.91-25.65 334.76-26 335.74-26L335.74-26 344.33-26Q345.33-26 346.21-25.62 347.09-25.24 347.74-24.6 348.39-23.95 348.76-23.07 349.14-22.19 349.14-21.19L349.14-21.19ZM363.69 10.5L358.91 10.5 364.35-2.34 354.14-26 359.2-26 366.79-8.11 374.38-26 379.44-26 363.69 10.5Z" fill="#e5ddc6" data-fill-palette-color="primary"></path></g></svg></g></svg></g></svg></g></svg></g><g transform="matrix(1,0,0,1,407.10116706723096,7.579297818868415)"><svg viewBox="0 0 39.793713073484746 33.89834817370923" height="33.89834817370923" width="39.793713073484746"><g><svg xmlns:x="http://ns.adobe.com/Extensibility/1.0/" xmlns:i="http://ns.adobe.com/AdobeIllustrator/10.0/" xmlns:graph="http://ns.adobe.com/Graphs/1.0/" xmlns="http://www.w3.org/2000/svg" xmlns:xlink="http://www.w3.org/1999/xlink" version="1.1" x="0" y="0" viewBox="5 9 54 46" enable-background="new 0 0 64 64" xml:space="preserve" height="33.89834817370923" width="39.793713073484746" class="icon-icon-0" data-fill-palette-color="accent" id="icon-0"><g fill="#dddddd" data-fill-palette-color="accent"><g fill="#dddddd" data-fill-palette-color="accent"><path d="M59 17v-7c0-0.552-0.447-1-1-1H6c-0.552 0-1 0.448-1 1v7H59z" fill="#dddddd" data-fill-palette-color="accent"></path><path d="M5 19v35c0 0.553 0.448 1 1 1h52c0.553 0 1-0.447 1-1V19H5zM16.707 44.707C16.512 44.902 16.256 45 16 45s-0.512-0.098-0.707-0.293c-0.391-0.391-0.391-1.023 0-1.414L22.586 36l-7.293-7.293c-0.391-0.391-0.391-1.023 0-1.414s1.023-0.391 1.414 0l8 8c0.391 0.391 0.391 1.023 0 1.414L16.707 44.707zM36 45H26c-0.552 0-1-0.447-1-1s0.448-1 1-1h10c0.553 0 1 0.447 1 1S36.553 45 36 45z" fill="#dddddd" data-fill-palette-color="accent"></path></g></g></svg><g></g></g></svg></g></svg></g><defs></defs></svg><rect width="395.52" height="43.417374596445676" fill="none" stroke="none" visibility="hidden"></rect></g></svg></g></svg>