<svg xmlns="http://www.w3.org/2000/svg" version="1.1" xmlns:xlink="http://www.w3.org/1999/xlink" xmlns:svgjs="http://svgjs.dev/svgjs" width="1500" height="1500" viewBox="0 0 1500 1500"><rect width="1500" height="1500" fill="#ffffff"></rect><g transform="matrix(0.6666666666666666,0,0,0.6666666666666666,249.39393939393938,687.8963260145271)"><svg viewBox="0 0 396 49" data-background-color="#a44a0c" preserveAspectRatio="xMidYMid meet" height="185" width="1500" xmlns="http://www.w3.org/2000/svg" xmlns:xlink="http://www.w3.org/1999/xlink"><g id="tight-bounds" transform="matrix(1,0,0,1,0.2400000000000091,0.17362182666087733)"><svg viewBox="0 0 395.52 48.65275634667825" height="48.65275634667825" width="395.52"><g><svg viewBox="0 0 435.4082187476675 53.55939011446059" height="48.65275634667825" width="395.52"><g transform="matrix(1,0,0,1,0,2.251223151507265)"><svg viewBox="0 0 395.52000000000004 49.05694381144606" height="49.05694381144606" width="395.52000000000004"><g id="textblocktransform"><svg viewBox="0 0 395.52000000000004 49.05694381144606" height="49.05694381144606" width="395.52000000000004" id="textblock"><g><svg viewBox="0 0 395.52000000000004 49.05694381144606" height="49.05694381144606" width="395.52000000000004"><g transform="matrix(1,0,0,1,0,0)"><svg width="395.52000000000004" viewBox="4.49 -36.01 374.95 46.51" height="49.05694381144606" data-palette-color="#e5ddc6"><g class="wordmark-text-0" data-fill-palette-color="primary" id="text-0"><path d="M4.49-35.01L9.5-35.01 9.5-19.9 26.2-35.01 33.25-35.01 14.31-17.85 34.01 0 26.95 0 9.5-15.75 9.5 0 4.49 0 4.49-35.01ZM52.76-21.19L42.84-21.19 42.84 0 38.06 0 38.06-26 42.84-26 42.84-21.41Q42.89-22.36 43.28-23.21 43.67-24.05 44.32-24.67 44.97-25.29 45.82-25.65 46.68-26 47.65-26L47.65-26 52.76-26Q53.76-26 54.62-25.62 55.49-25.24 56.15-24.6 56.81-23.95 57.19-23.07 57.57-22.19 57.57-21.19L57.57-21.19 57.57-16.8 52.76-16.8 52.76-21.19ZM63.79-26L68.6-26 68.6 0 63.79 0 63.79-26ZM63.54-31.01L63.54-36.01 68.84-36.01 68.84-31.01 63.54-31.01ZM76.34-4.81L92.55-4.81 92.55-10.84 81.14-10.84Q80.14-10.84 79.26-11.22 78.39-11.6 77.74-12.24 77.09-12.89 76.71-13.77 76.34-14.65 76.34-15.65L76.34-15.65 76.34-21.19Q76.34-22.19 76.71-23.07 77.09-23.95 77.74-24.6 78.39-25.24 79.26-25.62 80.14-26 81.14-26L81.14-26 96.35-26 96.35-21.19 81.14-21.19 81.14-15.65 92.55-15.65Q93.55-15.65 94.41-15.27 95.28-14.89 95.94-14.25 96.6-13.6 96.98-12.72 97.36-11.84 97.36-10.84L97.36-10.84 97.36-4.81Q97.36-3.81 96.98-2.93 96.6-2.05 95.94-1.4 95.28-0.76 94.41-0.38 93.55 0 92.55 0L92.55 0 76.34 0 76.34-4.81ZM127.85-21.19L127.85 0 123.04 0 123.04-21.19 109.63-21.19 109.63 0 104.85 0 104.85-36.01 109.63-36.01 109.63-21.41Q109.68-22.36 110.07-23.21 110.46-24.05 111.11-24.67 111.76-25.29 112.61-25.65 113.47-26 114.44-26L114.44-26 123.04-26Q124.04-26 124.92-25.62 125.8-25.24 126.44-24.6 127.09-23.95 127.47-23.07 127.85-22.19 127.85-21.19L127.85-21.19ZM158.85-21.19L158.85 0 154.04 0 154.04-21.19 140.64-21.19 140.64 0 135.85 0 135.85-26 140.64-26 140.64-21.41Q140.69-22.36 141.08-23.21 141.47-24.05 142.11-24.67 142.76-25.29 143.62-25.65 144.47-26 145.45-26L145.45-26 154.04-26Q155.04-26 155.92-25.62 156.8-25.24 157.45-24.6 158.09-23.95 158.47-23.07 158.85-22.19 158.85-21.19L158.85-21.19ZM166.86-4.81L166.86-11.35Q166.86-12.35 167.23-13.22 167.61-14.09 168.26-14.75 168.91-15.41 169.78-15.78 170.66-16.16 171.64-16.16L171.64-16.16 184.04-16.16 184.04-21.19 168.34-21.19 168.34-26 184.04-26Q185.04-26 185.92-25.62 186.8-25.24 187.45-24.6 188.1-23.95 188.47-23.07 188.85-22.19 188.85-21.19L188.85-21.19 188.85 0 184.04 0 184.04-4.39Q183.97-3.49 183.55-2.69 183.14-1.88 182.49-1.28 181.85-0.68 181.02-0.34 180.19 0 179.26 0L179.26 0 171.64 0Q170.66 0 169.78-0.38 168.91-0.76 168.26-1.4 167.61-2.05 167.23-2.93 166.86-3.81 166.86-4.81L166.86-4.81ZM171.64-11.35L171.64-4.81 184.04-4.81 184.04-11.35 171.64-11.35ZM216.9 0L215.41 0 202.35-25.66 202.35 0 197.35 0 197.35-35.01 202.81-35.01 216.14-8.64 229.5-35.01 234.94-35.01 234.94 0 229.96 0 229.96-25.66 216.9 0ZM243.46-4.81L243.46-26 248.25-26 248.25-4.81 261.65-4.81 261.65-26 266.46-26 266.46 0 261.65 0 261.65-4.39Q261.58-3.49 261.16-2.69 260.75-1.88 260.1-1.28 259.45-0.68 258.62-0.34 257.79 0 256.86 0L256.86 0 248.25 0Q247.27 0 246.39-0.38 245.51-0.76 244.87-1.4 244.22-2.05 243.84-2.93 243.46-3.81 243.46-4.81L243.46-4.81ZM289.16-21.19L279.25-21.19 279.25 0 274.46 0 274.46-26 279.25-26 279.25-21.41Q279.3-22.36 279.69-23.21 280.08-24.05 280.73-24.67 281.37-25.29 282.23-25.65 283.08-26 284.06-26L284.06-26 289.16-26Q290.16-26 291.03-25.62 291.9-25.24 292.56-24.6 293.21-23.95 293.59-23.07 293.97-22.19 293.97-21.19L293.97-21.19 293.97-16.8 289.16-16.8 289.16-21.19ZM298.44-21.19L298.44-26 304.78-26 304.78-34.01 309.59-34.01 309.59-26 318.14-26 318.14-21.19 309.59-21.19 309.59-4.81 318.14-4.81 318.14 0 309.59 0Q308.62 0 307.74-0.38 306.86-0.76 306.2-1.4 305.54-2.05 305.16-2.93 304.78-3.81 304.78-4.81L304.78-4.81 304.78-21.19 298.44-21.19ZM349.14-21.19L349.14 0 344.33 0 344.33-21.19 330.93-21.19 330.93 0 326.14 0 326.14-36.01 330.93-36.01 330.93-21.41Q330.98-22.36 331.37-23.21 331.76-24.05 332.41-24.67 333.05-25.29 333.91-25.65 334.76-26 335.74-26L335.74-26 344.33-26Q345.33-26 346.21-25.62 347.09-25.24 347.74-24.6 348.39-23.95 348.76-23.07 349.14-22.19 349.14-21.19L349.14-21.19ZM363.69 10.5L358.91 10.5 364.35-2.34 354.14-26 359.2-26 366.79-8.11 374.38-26 379.44-26 363.69 10.5Z" fill="#000000" data-fill-palette-color="primary"></path></g></svg></g></svg></g></svg></g></svg></g><g transform="matrix(1,0,0,1,407.10116706723096,0)"><svg viewBox="0 0 28.307051680436505 53.55939011446059" height="53.55939011446059" width="28.307051680436505"><g><svg xmlns="http://www.w3.org/2000/svg" xmlns:xlink="http://www.w3.org/1999/xlink" version="1.1" x="0" y="0" viewBox="122.04599999999994 2.54500000000005 267.90900000000005 506.9069999999999" enable-background="new 0 0 512 512" xml:space="preserve" height="53.55939011446059" width="28.307051680436505" class="icon-icon-0" data-fill-palette-color="accent" id="icon-0"><path d="M359.021 416.956c-2.831-1.727-6.522-0.831-8.246 2-13.088 21.468-47.546 35.687-88.775 36.98v-22.64c27.914-1.141 60.397-10.185 74.163-32.766 1.725-2.829 0.829-6.521-2-8.246-2.831-1.727-6.522-0.83-8.246 2-9.414 15.442-34.126 25.766-63.917 27.014v-18.124c16.289-1.112 34.549-6.799 42.644-20.073 1.725-2.829 0.83-6.521-1.999-8.247-2.831-1.727-6.522-0.83-8.247 1.999-4.765 7.814-17.145 13.178-32.397 14.308v-41.603c71.142-3.455 127.954-54.637 127.954-116.667 0-50.757-17.714-75.078-76.405-155.666-14.91-20.472-31.809-43.675-51.988-72.149-1.125-1.587-2.95-2.531-4.896-2.531s-3.77 0.943-4.895 2.531c-21.824 30.793-40.588 56.401-55.666 76.977-56.889 77.637-74.059 101.068-74.059 150.837 0 31.225 13.96 60.57 39.31 82.632 23.835 20.744 55.142 32.74 88.645 34.089v41.549c-15.253-1.13-27.633-6.492-32.397-14.307-1.725-2.83-5.415-3.727-8.247-2-2.829 1.725-3.725 5.417-2 8.246 8.094 13.275 26.354 18.962 42.644 20.074v18.124c-29.79-1.248-54.501-11.572-63.917-27.015-1.726-2.829-5.418-3.726-8.246-1.999-2.83 1.726-3.725 5.418-1.999 8.247 13.769 22.58 46.25 31.624 74.163 32.765v22.64c-41.229-1.294-75.687-15.514-88.776-36.981-1.726-2.829-5.418-3.726-8.246-1.999-2.829 1.726-3.725 5.417-1.999 8.247 18.237 29.91 61.977 41.581 99.021 42.736v35.514c0 3.313 2.686 6 6 6 3.313 0 6-2.687 6-6v-35.514c37.046-1.154 80.786-12.825 99.021-42.737C362.746 422.373 361.852 418.681 359.021 416.956zM250 337.602c-64.417-2.845-115.954-48.88-115.954-104.71 0-45.842 16.631-68.54 71.738-143.744 13.964-19.057 31.083-42.421 50.88-70.237 18.084 25.425 33.473 46.555 47.184 65.381 58.407 80.197 74.105 101.751 74.105 148.601 0 55.463-51.425 101.264-115.954 104.651v-38c39.477-3.074 70.666-36.157 70.666-76.41 0-42.274-34.393-76.667-76.666-76.667-42.274 0-76.666 34.393-76.666 76.667 0 40.253 31.188 73.336 70.666 76.41V337.602zM191.334 223.133c0-35.657 29.009-64.667 64.666-64.667 35.657 0 64.666 29.009 64.666 64.667 0 33.633-25.813 61.34-58.666 64.379V241.51c2.894-0.934 5.549-2.535 7.76-4.747 3.678-3.676 5.703-8.563 5.703-13.762 0.001-5.199-2.025-10.087-5.701-13.76-3.674-3.678-8.562-5.704-13.762-5.704-5.198 0-10.086 2.025-13.762 5.701-3.677 3.676-5.701 8.563-5.701 13.762 0 5.198 2.024 10.086 5.702 13.764 2.212 2.211 4.868 3.811 7.761 4.746v46.002C217.147 284.473 191.334 256.766 191.334 223.133zM248.537 223c0-1.993 0.776-3.867 2.187-5.277 1.409-1.41 3.283-2.187 5.276-2.187s3.865 0.776 5.276 2.188c1.41 1.409 2.187 3.283 2.187 5.275 0 1.993-0.776 3.867-2.188 5.278-1.408 1.408-3.281 2.184-5.273 2.184-1.994 0-3.868-0.776-5.277-2.185C249.313 226.868 248.537 224.994 248.537 223z" fill="#000000" data-fill-palette-color="accent"></path></svg></g></svg></g></svg></g><defs></defs></svg><rect width="395.52" height="48.65275634667825" fill="none" stroke="none" visibility="hidden"></rect></g></svg></g></svg>